<svg xmlns="http://www.w3.org/2000/svg" width="141.815" height="454.787" viewBox="0 0 106.361 341.09"><g stroke-width="2" stroke-linecap="round" stroke-linejoin="round" stroke="#000"><path d="M124.41582 97.213184C135.999153 97.213184 145.41582 87.796518 145.41582 76.213184 145.41582 64.629851 135.999153 55.213184 124.41582 55.213184 112.837695 55.213184 103.41582 64.629851 103.41582 76.213184 103.41582 87.796518 112.837695 97.213184 124.41582 97.213184M124.41582 158.327768C135.999153 158.327768 145.41582 148.905893 145.41582 137.327768 145.41582 125.744434 135.999153 116.327768 124.41582 116.327768 112.837695 116.327768 103.41582 125.744434 103.41582 137.327768 103.41582 148.905893 112.837695 158.327768 124.41582 158.327768M124.41582 218.327768C135.999153 218.327768 145.41582 208.905893 145.41582 197.327768 145.41582 185.744434 135.999153 176.327768 124.41582 176.327768 112.837695 176.327768 103.41582 185.744434 103.41582 197.327768 103.41582 208.905893 112.837695 218.327768 124.41582 218.327768" transform="matrix(.75 0 0 .75 -65.835 -32.41)"/><path d="M 186.436653 219.551726 C 178.796028 219.551726 169.738736 216.442351 161.858528 212.041309 C 160.056445 211.036101 160.910611 206.520476 161.858528 204.530893 C 162.999153 202.145476 166.249153 200.312143 168.561653 199.525684 C 168.561653 199.525684 204.311653 199.525684 204.311653 199.525684 C 206.629361 200.312143 209.874153 202.145476 211.014778 204.530893 C 211.967903 206.520476 212.686653 210.775684 211.014778 212.041309 C 205.202278 216.442351 194.082486 219.551726 186.436653 219.551726" transform="matrix(.75 0 0 .75 -65.835 -32.41)" fill="none"/><path d="M 162.301236 251.567351 C 166.171028 249.088184 186.452278 249.301726 186.452278 249.301726 C 186.452278 249.301726 204.88457 249.088184 210.598111 251.567351 C 214.301236 253.176726 212.504361 263.348601 208.405403 265.166309 C 193.035611 271.963184 179.863736 271.963184 164.499153 265.166309 C 160.394986 263.348601 158.889778 253.754851 162.301236 251.567351" transform="matrix(.75 0 0 .75 -65.835 -32.41)" fill="red"/><path d="M182.129361 226.364226C184.775195 229.197559 184.801236 239.103809 182.129361 242.140268 178.50957 246.260059 170.342903 244.536101 163.952278 244.671518 162.129361 244.582976 159.988736 244.796518 158.551236 243.327768 156.504361 241.062143 155.889778 237.765268 155.467903 234.734018 155.014778 230.395476 155.066861 225.812143 156.63457 221.723601 157.25957 220.135059 158.54082 218.457976 160.306445 218.681934 167.613736 220.062143 173.337695 222.161101 182.129361 226.364226M190.681445 226.364226C188.04082 229.197559 188.014778 239.103809 190.681445 242.140268 194.306445 246.260059 202.473111 244.536101 208.858528 244.671518 210.681445 244.582976 212.827278 244.796518 214.25957 243.327768 216.306445 241.062143 216.921028 237.765268 217.348111 234.734018 217.801236 230.395476 217.749153 225.812143 216.181445 221.723601 215.551236 220.135059 214.275195 218.457976 212.504361 218.681934 205.19707 220.062143 199.47832 222.161101 190.681445 226.364226M105.410611 240.874643C105.410611 240.874643 143.421028 240.874643 143.421028 240.874643" transform="matrix(.75 0 0 .75 -65.835 -32.41)" fill="none"/><path d="M124.41582 305.812143C135.999153 305.812143 145.41582 296.395476 145.41582 284.812143 145.41582 273.234018 135.999153 263.812143 124.41582 263.812143 112.837695 263.812143 103.41582 273.234018 103.41582 284.812143 103.41582 296.395476 112.837695 305.812143 124.41582 305.812143M124.41582 366.926726C135.999153 366.926726 145.41582 357.510059 145.41582 345.926726 145.41582 334.343393 135.999153 324.926726 124.41582 324.926726 112.837695 324.926726 103.41582 334.343393 103.41582 345.926726 103.41582 357.510059 112.837695 366.926726 124.41582 366.926726M124.41582 426.327768C135.999153 426.327768 145.41582 416.905893 145.41582 405.327768 145.41582 393.744434 135.999153 384.327768 124.41582 384.327768 112.837695 384.327768 103.41582 393.744434 103.41582 405.327768 103.41582 416.905893 112.837695 426.327768 124.41582 426.327768M124.41582 459.249643C124.41582 459.249643 146.691861 459.249643 146.691861 459.249643 148.10332 459.249643 149.186653 457.562143 149.04082 455.999643 147.785611 442.603809 136.223111 437.411101 124.41582 437.327768 112.613736 437.411101 101.051236 442.603809 99.796028 455.999643 99.644986 457.562143 100.72832 459.249643 102.139778 459.249643 102.139778 459.249643 124.41582 459.249643 124.41582 459.249643" transform="matrix(.75 0 0 .75 -65.835 -32.41)"/><path d="M 124.41582 464.077768 C 124.41582 464.077768 146.691861 464.077768 146.691861 464.077768 C 148.10332 464.077768 149.186653 465.765268 149.04082 467.332976 C 147.785611 480.723601 136.223111 485.921518 124.41582 485.999643 C 112.613736 485.921518 101.051236 480.723601 99.796028 467.332976 C 99.644986 465.765268 100.72832 464.077768 102.139778 464.077768 C 102.139778 464.077768 124.41582 464.077768 124.41582 464.077768" transform="matrix(.75 0 0 .75 -65.835 -32.41)" fill="none"/></g></svg>