<svg xmlns="http://www.w3.org/2000/svg" width="91.299" height="395.112" viewBox="0 0 68.474 296.334"><g stroke-width="2" stroke-linecap="round" stroke-linejoin="round" stroke="#000"><path d="M124.41716 97.213184C136.000493 97.213184 145.41716 87.796518 145.41716 76.213184 145.41716 64.629851 136.000493 55.213184 124.41716 55.213184 112.833827 55.213184 103.41716 64.629851 103.41716 76.213184 103.41716 87.796518 112.833827 97.213184 124.41716 97.213184M170.714035 106.770476C170.714035 99.588184 164.865077 93.739226 157.682785 93.739226 150.500493 93.739226 144.651535 99.588184 144.651535 106.770476 144.651535 113.952768 150.500493 119.801726 157.682785 119.801726 164.865077 119.801726 170.714035 113.952768 170.714035 106.770476" transform="matrix(.75 0 0 .75 -68.563 -32.41)"/><path d="M 124.41716 158.327768 C 136.000493 158.327768 145.41716 148.905893 145.41716 137.327768 C 145.41716 125.744434 136.000493 116.327768 124.41716 116.327768 C 112.833827 116.327768 103.41716 125.744434 103.41716 137.327768 C 103.41716 148.905893 112.833827 158.327768 124.41716 158.327768" transform="matrix(.75 0 0 .75 -68.563 -32.41)" fill="none"/><path d="M 124.41716 218.327768 C 136.000493 218.327768 145.41716 208.905893 145.41716 197.327768 C 145.41716 185.744434 136.000493 176.327768 124.41716 176.327768 C 112.833827 176.327768 103.41716 185.744434 103.41716 197.327768 C 103.41716 208.905893 112.833827 218.327768 124.41716 218.327768" transform="matrix(.75 0 0 .75 -68.563 -32.41)" fill="red"/><path d="M105.411952 240.874643C105.411952 240.874643 143.422368 240.874643 143.422368 240.874643M124.41716 305.812143C136.000493 305.812143 145.41716 296.395476 145.41716 284.812143 145.41716 273.234018 136.000493 263.812143 124.41716 263.812143 112.833827 263.812143 103.41716 273.234018 103.41716 284.812143 103.41716 296.395476 112.833827 305.812143 124.41716 305.812143M124.41716 366.926726C136.000493 366.926726 145.41716 357.510059 145.41716 345.926726 145.41716 334.343393 136.000493 324.926726 124.41716 324.926726 112.833827 324.926726 103.41716 334.343393 103.41716 345.926726 103.41716 357.510059 112.833827 366.926726 124.41716 366.926726M124.41716 426.327768C136.000493 426.327768 145.41716 416.905893 145.41716 405.327768 145.41716 393.744434 136.000493 384.327768 124.41716 384.327768 112.833827 384.327768 103.41716 393.744434 103.41716 405.327768 103.41716 416.905893 112.833827 426.327768 124.41716 426.327768" transform="matrix(.75 0 0 .75 -68.563 -32.41)" fill="none"/></g></svg>