<svg xmlns="http://www.w3.org/2000/svg" width="120.58" height="471.108" viewBox="0 0 90.435 353.331"><g stroke-width="2" stroke-linecap="round" stroke-linejoin="round" stroke="#000"><path d="M 84 6.3622 C 78.276042 37.76845 72.557292 60.606991 75.416667 86.2997 C 76.072917 92.7997 80.119792 103.528866 84 103.429908 C 88.182292 103.325741 91.807292 93.247616 92.583333 86.2997 C 95.442708 60.606991 89.723958 37.76845 84 6.3622" transform="matrix(.75 0 0 .75 -38.25 4.228)" fill="none"/><path d="M84 154.919491C95.583333 154.919491 105 145.502825 105 133.919491 105 122.341366 95.583333 112.919491 84 112.919491 72.416667 112.919491 63 122.341366 63 133.919491 63 145.502825 72.416667 154.919491 84 154.919491M138.578125 124.3622C150.161458 124.3622 159.578125 114.940325 159.578125 103.3622 159.578125 91.778866 150.161458 82.3622 138.578125 82.3622 127 82.3622 117.578125 91.778866 117.578125 103.3622 117.578125 114.940325 127 124.3622 138.578125 124.3622" transform="matrix(.75 0 0 .75 -38.25 4.228)"/><path d="M138.578125 185.471575C150.161458 185.471575 159.578125 176.0497 159.578125 164.471575 159.578125 152.888241 150.161458 143.471575 138.578125 143.471575 127 143.471575 117.578125 152.888241 117.578125 164.471575 117.578125 176.0497 127 185.471575 138.578125 185.471575M138.578125 245.471575C150.161458 245.471575 159.578125 236.0497 159.578125 224.471575 159.578125 212.888241 150.161458 203.471575 138.578125 203.471575 127 203.471575 117.578125 212.888241 117.578125 224.471575 117.578125 236.0497 127 245.471575 138.578125 245.471575M157.229167 268.221575C157.229167 268.221575 119.916667 268.221575 119.916667 268.221575" transform="matrix(.75 0 0 .75 -38.25 4.228)" fill="none"/><path d="M 138.578125 332.961158 C 150.161458 332.961158 159.578125 323.539283 159.578125 311.961158 C 159.578125 300.377825 150.161458 290.961158 138.578125 290.961158 C 127 290.961158 117.578125 300.377825 117.578125 311.961158 C 117.578125 323.539283 127 332.961158 138.578125 332.961158" transform="matrix(.75 0 0 .75 -38.25 4.228)"/><path d="M138.578125 394.08095C150.161458 394.08095 159.578125 384.659075 159.578125 373.08095 159.578125 361.497616 150.161458 352.08095 138.578125 352.08095 127 352.08095 117.578125 361.497616 117.578125 373.08095 117.578125 384.659075 127 394.08095 138.578125 394.08095M138.578125 453.471575C150.161458 453.471575 159.578125 444.0497 159.578125 432.471575 159.578125 420.888241 150.161458 411.471575 138.578125 411.471575 127 411.471575 117.578125 420.888241 117.578125 432.471575 117.578125 444.0497 127 453.471575 138.578125 453.471575" transform="matrix(.75 0 0 .75 -38.25 4.228)" fill="red"/></g></svg>