<svg xmlns="http://www.w3.org/2000/svg" width="474.937" height="122.705" viewBox="0 0 356.203 92.029"><g stroke-width="2" stroke-linecap="round" stroke-linejoin="round" stroke="#000"><path d="M 75.15625 130.262103 C 68.270833 130.230853 62.348958 130.887103 58.09375 133.074603 C 53.84375 135.256894 51.390625 139.199603 51.90625 144.980853 C 53.552083 149.855853 56.682292 153.444394 60.9375 156.199603 C 64.708333 158.241269 69.078125 158.767311 73.5625 158.230853 C 82.489583 157.157936 92.005208 151.965228 99.3125 145.762103 C 99.354167 145.725644 99.401042 145.699603 99.4375 145.668353 C 105.864583 141.579811 105.765625 139.402728 121.96875 135.293353 C 122.453125 135.168353 122.770833 134.710019 122.71875 134.210019 C 122.661458 133.715228 122.25 133.335019 121.75 133.324603 C 106.619792 133.178769 88.932292 130.319394 75.15625 130.262103" transform="matrix(.75 0 0 .75 1.125 -40.478)"/><path d="M 36.21875 122.824603 C 29.921875 122.944394 23.104167 124.954811 19.203125 130.225644 C 15.40625 135.361061 14.546875 142.069394 14.953125 148.288144 C 15.59375 155.194394 20 162.152728 26.864583 164.215228 C 30.671875 165.454811 34.958333 164.105853 37.640625 161.204811 C 42.510417 156.111061 43.901042 148.631894 43.203125 141.808978 C 43.197917 139.730853 42.390625 137.491269 43.625 135.590228 C 45.890625 131.501686 49.921875 128.793353 53.84375 126.480853 C 54.90625 124.246478 51.640625 124.918353 50.390625 124.340228 C 45.734375 123.371478 40.984375 122.689186 36.21875 122.824603" transform="matrix(.75 0 0 .75 1.125 -40.478)" fill="none"/><path d="M52.5 92.933978C52.5 81.355853 43.083333 71.933978 31.5 71.933978 19.916667 71.933978 10.5 81.355853 10.5 92.933978 10.5 104.517311 19.916667 113.933978 31.5 113.933978 43.083333 113.933978 52.5 104.517311 52.5 92.933978M112.5 92.933978C112.5 81.355853 103.083333 71.933978 91.5 71.933978 79.916667 71.933978 70.5 81.355853 70.5 92.933978 70.5 104.517311 79.916667 113.933978 91.5 113.933978 103.083333 113.933978 112.5 104.517311 112.5 92.933978M172.5 92.933978C172.5 81.355853 163.083333 71.933978 151.5 71.933978 139.916667 71.933978 130.5 81.355853 130.5 92.933978 130.5 104.517311 139.916667 113.933978 151.5 113.933978 163.083333 113.933978 172.5 104.517311 172.5 92.933978" transform="matrix(.75 0 0 .75 1.125 -40.478)"/><path d="M190.510417 112.949603C190.510417 112.949603 190.510417 72.949603 190.510417 72.949603M252.5 92.933978C252.5 81.355853 243.083333 71.933978 231.5 71.933978 219.916667 71.933978 210.5 81.355853 210.5 92.933978 210.5 104.517311 219.916667 113.933978 231.5 113.933978 243.083333 113.933978 252.5 104.517311 252.5 92.933978" transform="matrix(.75 0 0 .75 1.125 -40.478)" fill="none"/><path d="M 312.5 92.933978 C 312.5 81.355853 303.083333 71.933978 291.5 71.933978 C 279.916667 71.933978 270.5 81.355853 270.5 92.933978 C 270.5 104.517311 279.916667 113.933978 291.5 113.933978 C 303.083333 113.933978 312.5 104.517311 312.5 92.933978" transform="matrix(.75 0 0 .75 1.125 -40.478)" fill="red"/><path d="M 372.5 92.933978 C 372.5 81.355853 363.083333 71.933978 351.5 71.933978 C 339.916667 71.933978 330.5 81.355853 330.5 92.933978 C 330.5 104.517311 339.916667 113.933978 351.5 113.933978 C 363.083333 113.933978 372.5 104.517311 372.5 92.933978" transform="matrix(.75 0 0 .75 1.125 -40.478)"/><path d="M 411.59375 65.970436 C 411.078125 66.022519 410.6875 66.454811 410.6875 66.970436 C 410.6875 69.543353 410.072917 70.741269 408.4375 72.314186 C 406.802083 73.892311 404.067708 75.710019 400.1875 78.876686 C 390.927083 86.439186 387.953125 95.569394 389.34375 103.126686 C 390.734375 110.689186 396.46875 116.652728 404.15625 117.751686 C 407.630208 118.251686 410.380208 117.163144 412.21875 115.126686 C 414.057292 113.095436 415.0625 110.241269 415.65625 107.032936 C 416.84375 100.616269 416.375 92.725644 416.375 87.251686 C 416.375 87.251686 416.375 66.970436 416.375 66.970436 C 416.375 66.418353 415.927083 65.970436 415.375 65.970436 C 415.375 65.970436 411.6875 65.970436 411.6875 65.970436 C 411.65625 65.970436 411.625 65.970436 411.59375 65.970436" transform="matrix(.75 0 0 .75 1.125 -40.478)" fill="none"/><path d="M437.71875 97.767311C435.078125 97.788144 432.34375 97.913144 429.875 98.392311 427.401042 98.871478 425.161458 99.689186 423.5625 101.204811 421.963542 102.720436 421.145833 104.980853 421.53125 107.798561 422.375 113.980853 426.765625 118.678769 432.46875 119.829811 438.166667 120.975644 445.083333 118.538144 450.875 111.111061 453.28125 108.022519 454.807292 105.845436 456.15625 104.548561 457.505208 103.246478 458.536458 102.767311 460.4375 102.767311 460.989583 102.767311 461.4375 102.319394 461.4375 101.767311 461.4375 101.767311 461.4375 98.829811 461.4375 98.829811 461.4375 98.277728 460.989583 97.829811 460.4375 97.829811 460.4375 97.829811 445 97.829811 445 97.829811 442.921875 97.829811 440.359375 97.741269 437.71875 97.767311M427.90625 82.668353C426.255208 82.668353 424.75 83.111061 423.59375 83.897519 422.4375 84.678769 421.59375 85.866269 421.59375 87.241269 421.59375 87.241269 421.59375 89.053769 421.59375 89.053769 421.59375 90.428769 422.4375 91.616269 423.59375 92.397519 424.75 93.183978 426.255208 93.626686 427.90625 93.626686 427.90625 93.626686 449.09375 93.626686 449.09375 93.626686 450.744792 93.626686 452.25 93.183978 453.40625 92.397519 454.5625 91.616269 455.40625 90.428769 455.40625 89.053769 455.40625 89.053769 455.40625 87.241269 455.40625 87.241269 455.40625 85.866269 454.5625 84.678769 453.40625 83.897519 452.25 83.111061 450.744792 82.668353 449.09375 82.668353 449.09375 82.668353 427.90625 82.668353 427.90625 82.668353M427.9375 67.548561C426.286458 67.548561 424.78125 67.991269 423.625 68.772519 422.46875 69.558978 421.625 70.772519 421.625 72.152728 421.625 72.152728 421.625 73.928769 421.625 73.928769 421.625 75.308978 422.46875 76.522519 423.625 77.308978 424.78125 78.090228 426.286458 78.532936 427.9375 78.532936 427.9375 78.532936 449.125 78.532936 449.125 78.532936 450.776042 78.532936 452.28125 78.090228 453.4375 77.308978 454.59375 76.522519 455.4375 75.308978 455.4375 73.928769 455.4375 73.928769 455.4375 72.152728 455.4375 72.152728 455.4375 70.772519 454.59375 69.558978 453.4375 68.772519 452.28125 67.991269 450.776042 67.548561 449.125 67.548561 449.125 67.548561 427.9375 67.548561 427.9375 67.548561" transform="matrix(.75 0 0 .75 1.125 -40.478)" fill="red"/></g></svg>