<svg xmlns="http://www.w3.org/2000/svg" width="73.274" height="454.787" viewBox="0 0 54.955 341.09"><g stroke-width="2" stroke-linecap="round" stroke-linejoin="round" stroke="#000"><path d="M124.41582 97.213184C135.999153 97.213184 145.41582 87.796518 145.41582 76.213184 145.41582 64.629851 135.999153 55.213184 124.41582 55.213184 112.837695 55.213184 103.41582 64.629851 103.41582 76.213184 103.41582 87.796518 112.837695 97.213184 124.41582 97.213184M124.41582 158.327768C135.999153 158.327768 145.41582 148.905893 145.41582 137.327768 145.41582 125.744434 135.999153 116.327768 124.41582 116.327768 112.837695 116.327768 103.41582 125.744434 103.41582 137.327768 103.41582 148.905893 112.837695 158.327768 124.41582 158.327768" transform="matrix(.75 0 0 .75 -65.835 -32.41)" fill="none"/><path d="M 124.41582 218.327768 C 135.999153 218.327768 145.41582 208.905893 145.41582 197.327768 C 145.41582 185.744434 135.999153 176.327768 124.41582 176.327768 C 112.837695 176.327768 103.41582 185.744434 103.41582 197.327768 C 103.41582 208.905893 112.837695 218.327768 124.41582 218.327768" transform="matrix(.75 0 0 .75 -65.835 -32.41)"/><path d="M 105.410611 240.874643 C 105.410611 240.874643 143.421028 240.874643 143.421028 240.874643" transform="matrix(.75 0 0 .75 -65.835 -32.41)" fill="none"/><path d="M124.41582 305.812143C135.999153 305.812143 145.41582 296.395476 145.41582 284.812143 145.41582 273.234018 135.999153 263.812143 124.41582 263.812143 112.837695 263.812143 103.41582 273.234018 103.41582 284.812143 103.41582 296.395476 112.837695 305.812143 124.41582 305.812143M124.41582 366.926726C135.999153 366.926726 145.41582 357.510059 145.41582 345.926726 145.41582 334.343393 135.999153 324.926726 124.41582 324.926726 112.837695 324.926726 103.41582 334.343393 103.41582 345.926726 103.41582 357.510059 112.837695 366.926726 124.41582 366.926726M124.41582 426.327768C135.999153 426.327768 145.41582 416.905893 145.41582 405.327768 145.41582 393.744434 135.999153 384.327768 124.41582 384.327768 112.837695 384.327768 103.41582 393.744434 103.41582 405.327768 103.41582 416.905893 112.837695 426.327768 124.41582 426.327768" transform="matrix(.75 0 0 .75 -65.835 -32.41)"/><path d="M 124.41582 459.249643 C 124.41582 459.249643 146.691861 459.249643 146.691861 459.249643 C 148.10332 459.249643 149.186653 457.562143 149.04082 455.999643 C 147.785611 442.603809 136.223111 437.411101 124.41582 437.327768 C 112.613736 437.411101 101.051236 442.603809 99.796028 455.999643 C 99.644986 457.562143 100.72832 459.249643 102.139778 459.249643 C 102.139778 459.249643 124.41582 459.249643 124.41582 459.249643" transform="matrix(.75 0 0 .75 -65.835 -32.41)" fill="none"/><path d="M 124.41582 464.077768 C 124.41582 464.077768 146.691861 464.077768 146.691861 464.077768 C 148.10332 464.077768 149.186653 465.765268 149.04082 467.332976 C 147.785611 480.723601 136.223111 485.921518 124.41582 485.999643 C 112.613736 485.921518 101.051236 480.723601 99.796028 467.332976 C 99.644986 465.765268 100.72832 464.077768 102.139778 464.077768 C 102.139778 464.077768 124.41582 464.077768 124.41582 464.077768" transform="matrix(.75 0 0 .75 -65.835 -32.41)" fill="red"/></g></svg>