<svg xmlns="http://www.w3.org/2000/svg" width="190.568" height="532.685" viewBox="0 0 142.926 399.514"><g stroke-width="2" stroke-linecap="round" stroke-linejoin="round" stroke="#000"><path d="M84 6.3622C78.276042 37.76845 72.557292 60.606991 75.416667 86.2997 76.072917 92.7997 80.119792 103.528866 84 103.429908 88.182292 103.325741 91.807292 93.247616 92.583333 86.2997 95.442708 60.606991 89.723958 37.76845 84 6.3622M84 154.919491C95.583333 154.919491 105 145.502825 105 133.919491 105 122.341366 95.583333 112.919491 84 112.919491 72.416667 112.919491 63 122.341366 63 133.919491 63 145.502825 72.416667 154.919491 84 154.919491M138.578125 124.3622C150.161458 124.3622 159.578125 114.940325 159.578125 103.3622 159.578125 91.778866 150.161458 82.3622 138.578125 82.3622 127 82.3622 117.578125 91.778866 117.578125 103.3622 117.578125 114.940325 127 124.3622 138.578125 124.3622M138.578125 185.471575C150.161458 185.471575 159.578125 176.0497 159.578125 164.471575 159.578125 152.888241 150.161458 143.471575 138.578125 143.471575 127 143.471575 117.578125 152.888241 117.578125 164.471575 117.578125 176.0497 127 185.471575 138.578125 185.471575M138.578125 245.471575C150.161458 245.471575 159.578125 236.0497 159.578125 224.471575 159.578125 212.888241 150.161458 203.471575 138.578125 203.471575 127 203.471575 117.578125 212.888241 117.578125 224.471575 117.578125 236.0497 127 245.471575 138.578125 245.471575" transform="matrix(.75 0 0 .75 -38.25 4.228)"/><path d="M203.380208 359.919491C204.317708 357.742408 204.046875 355.039283 205.140625 352.669491 206.057292 350.872616 209.578125 348.794491 211.744792 345.1747 216.911458 336.534075 217.208333 327.252825 216.09375 318.653866 214.84375 309.008033 209.109375 298.721575 203.53125 298.752825 201.510417 298.76845 200.057292 299.429908 199.03125 301.752825 198.005208 304.08095 197.442708 307.336158 197.114583 311.002825 196.447917 318.33095 196.713542 327.351783 196.713542 333.606991 196.713542 333.606991 196.630208 359.966366 196.630208 359.966366 197.927083 359.945533 203.869792 360.195533 203.380208 359.919491M194.817708 290.528866C203.953125 298.179908 231.625 291.653866 229.447917 281.825741 224.84375 269.633033 195.291667 278.742408 194.817708 290.528866M185 359.997616C184.713542 359.945533 184.494792 346.554908 184.494792 345.966366 184.494792 343.023658 182.151042 341.659075 181.239583 339.856991 180.322917 338.060116 178.802083 335.981991 176.635417 332.3622 171.46875 323.721575 171.171875 314.445533 172.286458 305.841366 173.536458 296.195533 179.270833 285.909075 184.848958 285.945533 186.869792 285.95595 188.322917 286.617408 189.348958 288.940325 190.375 291.26845 190.9375 294.523658 191.265625 298.190325 191.932292 305.51845 191.666667 314.539283 191.666667 320.794491 191.666667 320.794491 191.75 360.0497 191.75 360.0497 191.75 360.0497 185 360.002825 185 360.002825 185 360.002825 185 359.997616 185 359.997616" transform="matrix(.75 0 0 .75 -38.25 4.228)" fill="none"/><path d="M 147.729167 254.778866 C 162.880208 258.851783 173.901042 262.929908 186.296875 260.89345 C 189.427083 260.4247 194.609375 257.539283 194.557292 254.778866 C 194.505208 251.7997 189.645833 249.221575 186.296875 248.669491 C 173.901042 246.633033 162.880208 250.70595 147.729167 254.778866" transform="matrix(.75 0 0 .75 -38.25 4.228)"/><path d="M157.229167 268.221575C157.229167 268.221575 119.916667 268.221575 119.916667 268.221575M138.578125 332.961158C150.161458 332.961158 159.578125 323.539283 159.578125 311.961158 159.578125 300.377825 150.161458 290.961158 138.578125 290.961158 127 290.961158 117.578125 300.377825 117.578125 311.961158 117.578125 323.539283 127 332.961158 138.578125 332.961158M138.578125 394.08095C150.161458 394.08095 159.578125 384.659075 159.578125 373.08095 159.578125 361.497616 150.161458 352.08095 138.578125 352.08095 127 352.08095 117.578125 361.497616 117.578125 373.08095 117.578125 384.659075 127 394.08095 138.578125 394.08095M138.578125 453.471575C150.161458 453.471575 159.578125 444.0497 159.578125 432.471575 159.578125 420.888241 150.161458 411.471575 138.578125 411.471575 127 411.471575 117.578125 420.888241 117.578125 432.471575 117.578125 444.0497 127 453.471575 138.578125 453.471575M91.067708 458.26845C83.463542 458.185116 77.776042 460.1747 77.432292 465.153866 74.354167 480.966366 115.067708 489.461158 128.640625 483.502825 115.484375 480.45595 103.682292 473.935116 105.390625 465.153866 105.515625 463.3622 106.338542 461.95595 107.6875 460.898658 101.963542 459.294491 96.098958 458.325741 91.067708 458.26845" transform="matrix(.75 0 0 .75 -38.25 4.228)" fill="none"/><path d="M 91.067708 487.898658 C 83.463542 487.815325 77.776042 489.804908 77.432292 494.784075 C 74.354167 510.596575 115.067708 519.096575 128.640625 513.133033 C 115.484375 510.086158 103.682292 503.565325 105.390625 494.784075 C 105.515625 492.992408 106.338542 491.586158 107.6875 490.528866 C 101.963542 488.9247 96.098958 487.95595 91.067708 487.898658" transform="matrix(.75 0 0 .75 -38.25 4.228)" fill="red"/><path d="M 160.838542 479.1122 C 158.338542 492.1747 101.786458 483.685116 105.390625 465.153866 C 106.5 449.211158 162.260417 463.9247 160.838542 479.1122" transform="matrix(.75 0 0 .75 -38.25 4.228)" fill="none"/><path d="M 160.838542 508.742408 C 158.338542 521.804908 101.786458 513.315325 105.390625 494.784075 C 106.5 478.841366 162.260417 493.554908 160.838542 508.742408" transform="matrix(.75 0 0 .75 -38.25 4.228)" fill="none"/></g></svg>